<svg xmlns="http://www.w3.org/2000/svg" viewBox="0 0 1080 1080"><defs><style>.cls-1{isolation:isolate;}.cls-2{fill:#ffd3b3;opacity:0.55;}.cls-3,.cls-5{fill:#fec272;}.cls-4,.cls-6{fill:none;stroke-miterlimit:10;}.cls-4{stroke:#fec272;stroke-width:20px;opacity:0.36;}.cls-4,.cls-5{mix-blend-mode:multiply;}.cls-6{stroke:#738de0;stroke-linecap:round;stroke-width:17px;}.cls-7{fill:#99adf9;}.cls-8{fill:#738de0;}</style></defs><g class="cls-1"><g id="Layer_2" data-name="Layer 2"><polygon class="cls-2" points="501.45 475.13 615.79 173 662.55 322.67 820.15 248.41 737.69 434.65 914.55 506.22 775.06 575.52 858.39 707.63 529.9 632.14 501.45 475.13"/><ellipse class="cls-3" cx="405.62" cy="570.9" rx="210.46" ry="343.92" transform="translate(-138.7 130.25) rotate(-15.61)"/><ellipse class="cls-4" cx="430.65" cy="563.91" rx="137.03" ry="248.98" transform="translate(-135.89 136.73) rotate(-15.61)"/><ellipse class="cls-5" cx="440.01" cy="562" rx="48.1" ry="100.25" transform="translate(-135.03 139.18) rotate(-15.61)"/><line class="cls-6" x1="493.8" y1="557.17" x2="800.63" y2="405.79"/><path class="cls-7" d="M737.64,434.56,739,381.44a8.38,8.38,0,0,1,4.68-7.33l74.86-36.94a8.41,8.41,0,0,1,12.12,7.75l-1.09,44.31Z"/><path class="cls-8" d="M737.64,434.56l43,31.27a8.42,8.42,0,0,0,8.66.74l75-37a8.4,8.4,0,0,0,1.22-14.33l-35.86-26.08Z"/><path class="cls-8" d="M505.65,514.83l29,58.71a7,7,0,0,1-6.1,10.06L451,585.32A7,7,0,0,1,445.45,574L494,513.55A7,7,0,0,1,505.65,514.83Z"/></g></g></svg>